<svg viewBox="80 100 240 105" xmlns="http://www.w3.org/2000/svg"><path d="m305.39 132a8.81 8.81 0 0 1 -8.84 8.84h-54.55l-4 11.6a17.9 17.9 0 0 1 -16.91 12h-42.18a17.89 17.89 0 0 1 -16.89-12l-4.02-11.64h-54.57a8.84 8.84 0 1 1 0-17.67h43.25c8.72-9.5 29.31-21.41 53.32-21.41s44.6 11.91 53.32 21.41h43.23a8.83 8.83 0 0 1 8.84 8.87z" fill="#68e1fd"/><path d="m221.07 165.44h-42.16a18.9 18.9 0 0 1 -17.83-12.67l-3.84-11h-53.81a9.84 9.84 0 0 1 0-19.67h42.81c9.75-10.38 30.58-21.41 53.76-21.41s44 11 53.76 21.41h42.79a9.84 9.84 0 0 1 9.84 9.83 9.83 9.83 0 0 1 -9.84 9.84h-53.81l-3.82 11a18.91 18.91 0 0 1 -17.85 12.67zm-117.64-41.31a7.82 7.82 0 0 0 -7.82 7.87 7.84 7.84 0 0 0 7.82 7.84h54.57a1 1 0 0 1 1 .67l4 11.6a16.92 16.92 0 0 0 15.95 11.33h42.16a16.93 16.93 0 0 0 16-11.32l4.05-11.65a1 1 0 0 1 .94-.67h54.52a7.83 7.83 0 0 0 5.55-2.3 7.75 7.75 0 0 0 2.29-5.54 7.84 7.84 0 0 0 -7.84-7.83h-43.3a1 1 0 0 1 -.73-.33c-9.34-10.15-29.77-21.08-52.59-21.08s-43.25 10.93-52.59 21.08a1 1 0 0 1 -.73.33z" fill="#093f68"/><rect fill="#68e1fd" height="33.83" rx="4.17" width="18.26" x="92.29" y="113.84"/><path d="m106.38 148.67h-9.92a5.18 5.18 0 0 1 -5.17-5.17v-25.5a5.18 5.18 0 0 1 5.17-5.17h9.92a5.18 5.18 0 0 1 5.17 5.17v25.5a5.18 5.18 0 0 1 -5.17 5.17zm-9.92-33.83a3.17 3.17 0 0 0 -3.17 3.16v25.5a3.17 3.17 0 0 0 3.17 3.17h9.92a3.17 3.17 0 0 0 3.17-3.17v-25.5a3.17 3.17 0 0 0 -3.17-3.17z" fill="#093f68"/><path d="m101.42 114.84a1 1 0 0 1 -1-1v-16.14a1 1 0 0 1 2 0v16.14a1 1 0 0 1 -1 1z" fill="#093f68"/><path d="m119.39 103.22h-35.93a1.5 1.5 0 0 1 0-3h35.93a1.5 1.5 0 1 1 0 3z" fill="#093f68"/><rect fill="#68e1fd" height="33.83" rx="4.17" width="18.26" x="289.45" y="113.84"/><g fill="#093f68"><path d="m303.54 148.67h-9.92a5.18 5.18 0 0 1 -5.17-5.17v-25.5a5.18 5.18 0 0 1 5.17-5.17h9.92a5.18 5.18 0 0 1 5.17 5.17v25.5a5.18 5.18 0 0 1 -5.17 5.17zm-9.92-33.83a3.17 3.17 0 0 0 -3.17 3.17v25.49a3.17 3.17 0 0 0 3.17 3.17h9.92a3.17 3.17 0 0 0 3.17-3.17v-25.5a3.17 3.17 0 0 0 -3.17-3.17z"/><path d="m298.58 114.84a1 1 0 0 1 -1-1v-16.14a1 1 0 1 1 2 0v16.14a1 1 0 0 1 -1 1z"/><path d="m316.54 103.22h-35.93a1.5 1.5 0 0 1 0-3h35.93a1.5 1.5 0 0 1 0 3z"/><path d="m242 141.8h-84a1 1 0 1 1 0-2h84a1 1 0 1 1 0 2z"/><path d="m193.11 164.44h13.77v8.69h-13.77z"/><path d="m206.89 174.13h-13.78a1 1 0 0 1 -1-1v-8.69a1 1 0 0 1 1-1h13.78a1 1 0 0 1 1 1v8.69a1 1 0 0 1 -1 1zm-12.78-2h11.78v-6.69h-11.78z"/></g><rect fill="#f56132" height="25.68" rx="3.06" width="41.41" x="179.29" y="173.13"/><path d="m217.65 199.81h-35.3a4.06 4.06 0 0 1 -4.06-4.06v-19.56a4.06 4.06 0 0 1 4.06-4.06h35.3a4.06 4.06 0 0 1 4.06 4.06v19.56a4.06 4.06 0 0 1 -4.06 4.06zm-35.3-25.68a2.06 2.06 0 0 0 -2.06 2.06v19.56a2.06 2.06 0 0 0 2.06 2.06h35.3a2.06 2.06 0 0 0 2.06-2.06v-19.56a2.06 2.06 0 0 0 -2.06-2.06z" fill="#093f68"/><circle cx="192.88" cy="185.33" fill="#093f68" r="7.11"/><path d="m192.88 193.44a8.11 8.11 0 1 1 8.11-8.11 8.12 8.12 0 0 1 -8.11 8.11zm0-14.22a6.11 6.11 0 1 0 6.11 6.11 6.12 6.12 0 0 0 -6.11-6.11z" fill="#093f68"/><path d="m213.47 181h-6.58a1 1 0 0 1 0-2h6.58a1 1 0 0 1 0 2z" fill="#093f68"/><path d="m171.54 122.21h-8.45a1 1 0 0 1 0-2h8.45a1 1 0 0 1 0 2z" fill="#093f68"/><path d="m181.11 122.21h-5.06a1 1 0 0 1 0-2h5.06a1 1 0 0 1 0 2z" fill="#093f68"/><path d="m145.26 140.8-28.59 57.83a2.54 2.54 0 0 0 2.33 3.67 2.54 2.54 0 0 0 2.25-1.36l31.57-60.14z" fill="#68e1fd"/><path d="m119 203.3a3.54 3.54 0 0 1 -3.18-5.11l28.59-57.83a1 1 0 0 1 .9-.56h7.51a1 1 0 0 1 .85.48 1 1 0 0 1 0 1l-31.59 60.12a3.52 3.52 0 0 1 -3.08 1.9zm26.93-61.5-28.32 57.27a1.52 1.52 0 0 0 .08 1.5 1.48 1.48 0 0 0 1.31.73 1.54 1.54 0 0 0 1.36-.83l30.8-58.67z" fill="#093f68"/><path d="m254.74 140.8 28.59 57.83a2.54 2.54 0 0 1 -2.28 3.67 2.54 2.54 0 0 1 -2.25-1.36l-31.57-60.14z" fill="#68e1fd"/><path d="m281.05 203.3a3.52 3.52 0 0 1 -3.13-1.9l-31.57-60.14a1 1 0 0 1 0-1 1 1 0 0 1 .85-.48h7.51a1 1 0 0 1 .9.56l28.59 57.83a3.54 3.54 0 0 1 -3.18 5.11zm-32.16-61.5 30.8 58.67a1.54 1.54 0 0 0 1.36.83 1.48 1.48 0 0 0 1.31-.73 1.52 1.52 0 0 0 .08-1.5l-28.32-57.27z" fill="#093f68"/></svg>